<svg xmlns="http://www.w3.org/2000/svg" width="360" height="520" viewBox="0 0 360 520">
<defs><linearGradient id="bg" x1="0" y1="0" x2="0.4" y2="1"><stop offset="0" stop-color="#132028"/><stop offset="1" stop-color="#1d3440"/></linearGradient>
<filter id="grain"><feTurbulence type="fractalNoise" baseFrequency="0.9" numOctaves="2" seed="3"/><feColorMatrix values="0 0 0 0 1  0 0 0 0 1  0 0 0 0 1  0 0 0 0.06 0"/></filter>
<clipPath id="card"><rect width="360" height="520" rx="18"/></clipPath></defs>
<g clip-path="url(#card)">
<rect width="360" height="520" fill="url(#bg)"/>
<path d="M-40,400 a20,20 0 0 1 40,0" fill="none" stroke="#9fc4d6" stroke-width="1.2" opacity="0.13"/><path d="M-34,400 a14,14 0 0 1 28,0" fill="none" stroke="#9fc4d6" stroke-width="1.2" opacity="0.13"/><path d="M-28,400 a8,8 0 0 1 16,0" fill="none" stroke="#9fc4d6" stroke-width="1.2" opacity="0.13"/><path d="M4,400 a20,20 0 0 1 40,0" fill="none" stroke="#9fc4d6" stroke-width="1.2" opacity="0.13"/><path d="M10,400 a14,14 0 0 1 28,0" fill="none" stroke="#9fc4d6" stroke-width="1.2" opacity="0.13"/><path d="M16,400 a8,8 0 0 1 16,0" fill="none" stroke="#9fc4d6" stroke-width="1.2" opacity="0.13"/><path d="M48,400 a20,20 0 0 1 40,0" fill="none" stroke="#9fc4d6" stroke-width="1.2" opacity="0.13"/><path d="M54,400 a14,14 0 0 1 28,0" fill="none" stroke="#9fc4d6" stroke-width="1.2" opacity="0.13"/><path d="M60,400 a8,8 0 0 1 16,0" fill="none" stroke="#9fc4d6" stroke-width="1.2" opacity="0.13"/><path d="M92,400 a20,20 0 0 1 40,0" fill="none" stroke="#9fc4d6" stroke-width="1.2" opacity="0.13"/><path d="M98,400 a14,14 0 0 1 28,0" fill="none" stroke="#9fc4d6" stroke-width="1.2" opacity="0.13"/><path d="M104,400 a8,8 0 0 1 16,0" fill="none" stroke="#9fc4d6" stroke-width="1.2" opacity="0.13"/><path d="M136,400 a20,20 0 0 1 40,0" fill="none" stroke="#9fc4d6" stroke-width="1.2" opacity="0.13"/><path d="M142,400 a14,14 0 0 1 28,0" fill="none" stroke="#9fc4d6" stroke-width="1.2" opacity="0.13"/><path d="M148,400 a8,8 0 0 1 16,0" fill="none" stroke="#9fc4d6" stroke-width="1.2" opacity="0.13"/><path d="M180,400 a20,20 0 0 1 40,0" fill="none" stroke="#9fc4d6" stroke-width="1.2" opacity="0.13"/><path d="M186,400 a14,14 0 0 1 28,0" fill="none" stroke="#9fc4d6" stroke-width="1.2" opacity="0.13"/><path d="M192,400 a8,8 0 0 1 16,0" fill="none" stroke="#9fc4d6" stroke-width="1.2" opacity="0.13"/><path d="M224,400 a20,20 0 0 1 40,0" fill="none" stroke="#9fc4d6" stroke-width="1.2" opacity="0.13"/><path d="M230,400 a14,14 0 0 1 28,0" fill="none" stroke="#9fc4d6" stroke-width="1.2" opacity="0.13"/><path d="M236,400 a8,8 0 0 1 16,0" fill="none" stroke="#9fc4d6" stroke-width="1.2" opacity="0.13"/><path d="M268,400 a20,20 0 0 1 40,0" fill="none" stroke="#9fc4d6" stroke-width="1.2" opacity="0.13"/><path d="M274,400 a14,14 0 0 1 28,0" fill="none" stroke="#9fc4d6" stroke-width="1.2" opacity="0.13"/><path d="M280,400 a8,8 0 0 1 16,0" fill="none" stroke="#9fc4d6" stroke-width="1.2" opacity="0.13"/><path d="M312,400 a20,20 0 0 1 40,0" fill="none" stroke="#9fc4d6" stroke-width="1.2" opacity="0.13"/><path d="M318,400 a14,14 0 0 1 28,0" fill="none" stroke="#9fc4d6" stroke-width="1.2" opacity="0.13"/><path d="M324,400 a8,8 0 0 1 16,0" fill="none" stroke="#9fc4d6" stroke-width="1.2" opacity="0.13"/><path d="M356,400 a20,20 0 0 1 40,0" fill="none" stroke="#9fc4d6" stroke-width="1.2" opacity="0.13"/><path d="M362,400 a14,14 0 0 1 28,0" fill="none" stroke="#9fc4d6" stroke-width="1.2" opacity="0.13"/><path d="M368,400 a8,8 0 0 1 16,0" fill="none" stroke="#9fc4d6" stroke-width="1.2" opacity="0.13"/><path d="M-18,422 a20,20 0 0 1 40,0" fill="none" stroke="#9fc4d6" stroke-width="1.2" opacity="0.13"/><path d="M-12,422 a14,14 0 0 1 28,0" fill="none" stroke="#9fc4d6" stroke-width="1.2" opacity="0.13"/><path d="M-6,422 a8,8 0 0 1 16,0" fill="none" stroke="#9fc4d6" stroke-width="1.2" opacity="0.13"/><path d="M26,422 a20,20 0 0 1 40,0" fill="none" stroke="#9fc4d6" stroke-width="1.2" opacity="0.13"/><path d="M32,422 a14,14 0 0 1 28,0" fill="none" stroke="#9fc4d6" stroke-width="1.2" opacity="0.13"/><path d="M38,422 a8,8 0 0 1 16,0" fill="none" stroke="#9fc4d6" stroke-width="1.2" opacity="0.13"/><path d="M70,422 a20,20 0 0 1 40,0" fill="none" stroke="#9fc4d6" stroke-width="1.2" opacity="0.13"/><path d="M76,422 a14,14 0 0 1 28,0" fill="none" stroke="#9fc4d6" stroke-width="1.2" opacity="0.13"/><path d="M82,422 a8,8 0 0 1 16,0" fill="none" stroke="#9fc4d6" stroke-width="1.2" opacity="0.13"/><path d="M114,422 a20,20 0 0 1 40,0" fill="none" stroke="#9fc4d6" stroke-width="1.2" opacity="0.13"/><path d="M120,422 a14,14 0 0 1 28,0" fill="none" stroke="#9fc4d6" stroke-width="1.2" opacity="0.13"/><path d="M126,422 a8,8 0 0 1 16,0" fill="none" stroke="#9fc4d6" stroke-width="1.2" opacity="0.13"/><path d="M158,422 a20,20 0 0 1 40,0" fill="none" stroke="#9fc4d6" stroke-width="1.2" opacity="0.13"/><path d="M164,422 a14,14 0 0 1 28,0" fill="none" stroke="#9fc4d6" stroke-width="1.2" opacity="0.13"/><path d="M170,422 a8,8 0 0 1 16,0" fill="none" stroke="#9fc4d6" stroke-width="1.2" opacity="0.13"/><path d="M202,422 a20,20 0 0 1 40,0" fill="none" stroke="#9fc4d6" stroke-width="1.2" opacity="0.13"/><path d="M208,422 a14,14 0 0 1 28,0" fill="none" stroke="#9fc4d6" stroke-width="1.2" opacity="0.13"/><path d="M214,422 a8,8 0 0 1 16,0" fill="none" stroke="#9fc4d6" stroke-width="1.2" opacity="0.13"/><path d="M246,422 a20,20 0 0 1 40,0" fill="none" stroke="#9fc4d6" stroke-width="1.2" opacity="0.13"/><path d="M252,422 a14,14 0 0 1 28,0" fill="none" stroke="#9fc4d6" stroke-width="1.2" opacity="0.13"/><path d="M258,422 a8,8 0 0 1 16,0" fill="none" stroke="#9fc4d6" stroke-width="1.2" opacity="0.13"/><path d="M290,422 a20,20 0 0 1 40,0" fill="none" stroke="#9fc4d6" stroke-width="1.2" opacity="0.13"/><path d="M296,422 a14,14 0 0 1 28,0" fill="none" stroke="#9fc4d6" stroke-width="1.2" opacity="0.13"/><path d="M302,422 a8,8 0 0 1 16,0" fill="none" stroke="#9fc4d6" stroke-width="1.2" opacity="0.13"/><path d="M334,422 a20,20 0 0 1 40,0" fill="none" stroke="#9fc4d6" stroke-width="1.2" opacity="0.13"/><path d="M340,422 a14,14 0 0 1 28,0" fill="none" stroke="#9fc4d6" stroke-width="1.2" opacity="0.13"/><path d="M346,422 a8,8 0 0 1 16,0" fill="none" stroke="#9fc4d6" stroke-width="1.2" opacity="0.13"/><path d="M378,422 a20,20 0 0 1 40,0" fill="none" stroke="#9fc4d6" stroke-width="1.2" opacity="0.13"/><path d="M384,422 a14,14 0 0 1 28,0" fill="none" stroke="#9fc4d6" stroke-width="1.2" opacity="0.13"/><path d="M390,422 a8,8 0 0 1 16,0" fill="none" stroke="#9fc4d6" stroke-width="1.2" opacity="0.13"/><path d="M-40,444 a20,20 0 0 1 40,0" fill="none" stroke="#9fc4d6" stroke-width="1.2" opacity="0.13"/><path d="M-34,444 a14,14 0 0 1 28,0" fill="none" stroke="#9fc4d6" stroke-width="1.2" opacity="0.13"/><path d="M-28,444 a8,8 0 0 1 16,0" fill="none" stroke="#9fc4d6" stroke-width="1.2" opacity="0.13"/><path d="M4,444 a20,20 0 0 1 40,0" fill="none" stroke="#9fc4d6" stroke-width="1.2" opacity="0.13"/><path d="M10,444 a14,14 0 0 1 28,0" fill="none" stroke="#9fc4d6" stroke-width="1.2" opacity="0.13"/><path d="M16,444 a8,8 0 0 1 16,0" fill="none" stroke="#9fc4d6" stroke-width="1.2" opacity="0.13"/><path d="M48,444 a20,20 0 0 1 40,0" fill="none" stroke="#9fc4d6" stroke-width="1.2" opacity="0.13"/><path d="M54,444 a14,14 0 0 1 28,0" fill="none" stroke="#9fc4d6" stroke-width="1.2" opacity="0.13"/><path d="M60,444 a8,8 0 0 1 16,0" fill="none" stroke="#9fc4d6" stroke-width="1.2" opacity="0.13"/><path d="M92,444 a20,20 0 0 1 40,0" fill="none" stroke="#9fc4d6" stroke-width="1.2" opacity="0.13"/><path d="M98,444 a14,14 0 0 1 28,0" fill="none" stroke="#9fc4d6" stroke-width="1.2" opacity="0.13"/><path d="M104,444 a8,8 0 0 1 16,0" fill="none" stroke="#9fc4d6" stroke-width="1.2" opacity="0.13"/><path d="M136,444 a20,20 0 0 1 40,0" fill="none" stroke="#9fc4d6" stroke-width="1.2" opacity="0.13"/><path d="M142,444 a14,14 0 0 1 28,0" fill="none" stroke="#9fc4d6" stroke-width="1.2" opacity="0.13"/><path d="M148,444 a8,8 0 0 1 16,0" fill="none" stroke="#9fc4d6" stroke-width="1.2" opacity="0.13"/><path d="M180,444 a20,20 0 0 1 40,0" fill="none" stroke="#9fc4d6" stroke-width="1.2" opacity="0.13"/><path d="M186,444 a14,14 0 0 1 28,0" fill="none" stroke="#9fc4d6" stroke-width="1.2" opacity="0.13"/><path d="M192,444 a8,8 0 0 1 16,0" fill="none" stroke="#9fc4d6" stroke-width="1.2" opacity="0.13"/><path d="M224,444 a20,20 0 0 1 40,0" fill="none" stroke="#9fc4d6" stroke-width="1.2" opacity="0.13"/><path d="M230,444 a14,14 0 0 1 28,0" fill="none" stroke="#9fc4d6" stroke-width="1.2" opacity="0.13"/><path d="M236,444 a8,8 0 0 1 16,0" fill="none" stroke="#9fc4d6" stroke-width="1.2" opacity="0.13"/><path d="M268,444 a20,20 0 0 1 40,0" fill="none" stroke="#9fc4d6" stroke-width="1.2" opacity="0.13"/><path d="M274,444 a14,14 0 0 1 28,0" fill="none" stroke="#9fc4d6" stroke-width="1.2" opacity="0.13"/><path d="M280,444 a8,8 0 0 1 16,0" fill="none" stroke="#9fc4d6" stroke-width="1.2" opacity="0.13"/><path d="M312,444 a20,20 0 0 1 40,0" fill="none" stroke="#9fc4d6" stroke-width="1.2" opacity="0.13"/><path d="M318,444 a14,14 0 0 1 28,0" fill="none" stroke="#9fc4d6" stroke-width="1.2" opacity="0.13"/><path d="M324,444 a8,8 0 0 1 16,0" fill="none" stroke="#9fc4d6" stroke-width="1.2" opacity="0.13"/><path d="M356,444 a20,20 0 0 1 40,0" fill="none" stroke="#9fc4d6" stroke-width="1.2" opacity="0.13"/><path d="M362,444 a14,14 0 0 1 28,0" fill="none" stroke="#9fc4d6" stroke-width="1.2" opacity="0.13"/><path d="M368,444 a8,8 0 0 1 16,0" fill="none" stroke="#9fc4d6" stroke-width="1.2" opacity="0.13"/><path d="M-18,466 a20,20 0 0 1 40,0" fill="none" stroke="#9fc4d6" stroke-width="1.2" opacity="0.13"/><path d="M-12,466 a14,14 0 0 1 28,0" fill="none" stroke="#9fc4d6" stroke-width="1.2" opacity="0.13"/><path d="M-6,466 a8,8 0 0 1 16,0" fill="none" stroke="#9fc4d6" stroke-width="1.2" opacity="0.13"/><path d="M26,466 a20,20 0 0 1 40,0" fill="none" stroke="#9fc4d6" stroke-width="1.2" opacity="0.13"/><path d="M32,466 a14,14 0 0 1 28,0" fill="none" stroke="#9fc4d6" stroke-width="1.2" opacity="0.13"/><path d="M38,466 a8,8 0 0 1 16,0" fill="none" stroke="#9fc4d6" stroke-width="1.2" opacity="0.13"/><path d="M70,466 a20,20 0 0 1 40,0" fill="none" stroke="#9fc4d6" stroke-width="1.2" opacity="0.13"/><path d="M76,466 a14,14 0 0 1 28,0" fill="none" stroke="#9fc4d6" stroke-width="1.2" opacity="0.13"/><path d="M82,466 a8,8 0 0 1 16,0" fill="none" stroke="#9fc4d6" stroke-width="1.2" opacity="0.13"/><path d="M114,466 a20,20 0 0 1 40,0" fill="none" stroke="#9fc4d6" stroke-width="1.2" opacity="0.13"/><path d="M120,466 a14,14 0 0 1 28,0" fill="none" stroke="#9fc4d6" stroke-width="1.2" opacity="0.13"/><path d="M126,466 a8,8 0 0 1 16,0" fill="none" stroke="#9fc4d6" stroke-width="1.2" opacity="0.13"/><path d="M158,466 a20,20 0 0 1 40,0" fill="none" stroke="#9fc4d6" stroke-width="1.2" opacity="0.13"/><path d="M164,466 a14,14 0 0 1 28,0" fill="none" stroke="#9fc4d6" stroke-width="1.2" opacity="0.13"/><path d="M170,466 a8,8 0 0 1 16,0" fill="none" stroke="#9fc4d6" stroke-width="1.2" opacity="0.13"/><path d="M202,466 a20,20 0 0 1 40,0" fill="none" stroke="#9fc4d6" stroke-width="1.2" opacity="0.13"/><path d="M208,466 a14,14 0 0 1 28,0" fill="none" stroke="#9fc4d6" stroke-width="1.2" opacity="0.13"/><path d="M214,466 a8,8 0 0 1 16,0" fill="none" stroke="#9fc4d6" stroke-width="1.2" opacity="0.13"/><path d="M246,466 a20,20 0 0 1 40,0" fill="none" stroke="#9fc4d6" stroke-width="1.2" opacity="0.13"/><path d="M252,466 a14,14 0 0 1 28,0" fill="none" stroke="#9fc4d6" stroke-width="1.2" opacity="0.13"/><path d="M258,466 a8,8 0 0 1 16,0" fill="none" stroke="#9fc4d6" stroke-width="1.2" opacity="0.13"/><path d="M290,466 a20,20 0 0 1 40,0" fill="none" stroke="#9fc4d6" stroke-width="1.2" opacity="0.13"/><path d="M296,466 a14,14 0 0 1 28,0" fill="none" stroke="#9fc4d6" stroke-width="1.2" opacity="0.13"/><path d="M302,466 a8,8 0 0 1 16,0" fill="none" stroke="#9fc4d6" stroke-width="1.2" opacity="0.13"/><path d="M334,466 a20,20 0 0 1 40,0" fill="none" stroke="#9fc4d6" stroke-width="1.2" opacity="0.13"/><path d="M340,466 a14,14 0 0 1 28,0" fill="none" stroke="#9fc4d6" stroke-width="1.2" opacity="0.13"/><path d="M346,466 a8,8 0 0 1 16,0" fill="none" stroke="#9fc4d6" stroke-width="1.2" opacity="0.13"/><path d="M378,466 a20,20 0 0 1 40,0" fill="none" stroke="#9fc4d6" stroke-width="1.2" opacity="0.13"/><path d="M384,466 a14,14 0 0 1 28,0" fill="none" stroke="#9fc4d6" stroke-width="1.2" opacity="0.13"/><path d="M390,466 a8,8 0 0 1 16,0" fill="none" stroke="#9fc4d6" stroke-width="1.2" opacity="0.13"/><path d="M-40,488 a20,20 0 0 1 40,0" fill="none" stroke="#9fc4d6" stroke-width="1.2" opacity="0.13"/><path d="M-34,488 a14,14 0 0 1 28,0" fill="none" stroke="#9fc4d6" stroke-width="1.2" opacity="0.13"/><path d="M-28,488 a8,8 0 0 1 16,0" fill="none" stroke="#9fc4d6" stroke-width="1.2" opacity="0.13"/><path d="M4,488 a20,20 0 0 1 40,0" fill="none" stroke="#9fc4d6" stroke-width="1.2" opacity="0.13"/><path d="M10,488 a14,14 0 0 1 28,0" fill="none" stroke="#9fc4d6" stroke-width="1.2" opacity="0.13"/><path d="M16,488 a8,8 0 0 1 16,0" fill="none" stroke="#9fc4d6" stroke-width="1.2" opacity="0.13"/><path d="M48,488 a20,20 0 0 1 40,0" fill="none" stroke="#9fc4d6" stroke-width="1.2" opacity="0.13"/><path d="M54,488 a14,14 0 0 1 28,0" fill="none" stroke="#9fc4d6" stroke-width="1.2" opacity="0.13"/><path d="M60,488 a8,8 0 0 1 16,0" fill="none" stroke="#9fc4d6" stroke-width="1.2" opacity="0.13"/><path d="M92,488 a20,20 0 0 1 40,0" fill="none" stroke="#9fc4d6" stroke-width="1.2" opacity="0.13"/><path d="M98,488 a14,14 0 0 1 28,0" fill="none" stroke="#9fc4d6" stroke-width="1.2" opacity="0.13"/><path d="M104,488 a8,8 0 0 1 16,0" fill="none" stroke="#9fc4d6" stroke-width="1.2" opacity="0.13"/><path d="M136,488 a20,20 0 0 1 40,0" fill="none" stroke="#9fc4d6" stroke-width="1.2" opacity="0.13"/><path d="M142,488 a14,14 0 0 1 28,0" fill="none" stroke="#9fc4d6" stroke-width="1.2" opacity="0.13"/><path d="M148,488 a8,8 0 0 1 16,0" fill="none" stroke="#9fc4d6" stroke-width="1.2" opacity="0.13"/><path d="M180,488 a20,20 0 0 1 40,0" fill="none" stroke="#9fc4d6" stroke-width="1.2" opacity="0.13"/><path d="M186,488 a14,14 0 0 1 28,0" fill="none" stroke="#9fc4d6" stroke-width="1.2" opacity="0.13"/><path d="M192,488 a8,8 0 0 1 16,0" fill="none" stroke="#9fc4d6" stroke-width="1.2" opacity="0.13"/><path d="M224,488 a20,20 0 0 1 40,0" fill="none" stroke="#9fc4d6" stroke-width="1.2" opacity="0.13"/><path d="M230,488 a14,14 0 0 1 28,0" fill="none" stroke="#9fc4d6" stroke-width="1.2" opacity="0.13"/><path d="M236,488 a8,8 0 0 1 16,0" fill="none" stroke="#9fc4d6" stroke-width="1.2" opacity="0.13"/><path d="M268,488 a20,20 0 0 1 40,0" fill="none" stroke="#9fc4d6" stroke-width="1.2" opacity="0.13"/><path d="M274,488 a14,14 0 0 1 28,0" fill="none" stroke="#9fc4d6" stroke-width="1.2" opacity="0.13"/><path d="M280,488 a8,8 0 0 1 16,0" fill="none" stroke="#9fc4d6" stroke-width="1.2" opacity="0.13"/><path d="M312,488 a20,20 0 0 1 40,0" fill="none" stroke="#9fc4d6" stroke-width="1.2" opacity="0.13"/><path d="M318,488 a14,14 0 0 1 28,0" fill="none" stroke="#9fc4d6" stroke-width="1.2" opacity="0.13"/><path d="M324,488 a8,8 0 0 1 16,0" fill="none" stroke="#9fc4d6" stroke-width="1.2" opacity="0.13"/><path d="M356,488 a20,20 0 0 1 40,0" fill="none" stroke="#9fc4d6" stroke-width="1.2" opacity="0.13"/><path d="M362,488 a14,14 0 0 1 28,0" fill="none" stroke="#9fc4d6" stroke-width="1.2" opacity="0.13"/><path d="M368,488 a8,8 0 0 1 16,0" fill="none" stroke="#9fc4d6" stroke-width="1.2" opacity="0.13"/><path d="M-18,510 a20,20 0 0 1 40,0" fill="none" stroke="#9fc4d6" stroke-width="1.2" opacity="0.13"/><path d="M-12,510 a14,14 0 0 1 28,0" fill="none" stroke="#9fc4d6" stroke-width="1.2" opacity="0.13"/><path d="M-6,510 a8,8 0 0 1 16,0" fill="none" stroke="#9fc4d6" stroke-width="1.2" opacity="0.13"/><path d="M26,510 a20,20 0 0 1 40,0" fill="none" stroke="#9fc4d6" stroke-width="1.2" opacity="0.13"/><path d="M32,510 a14,14 0 0 1 28,0" fill="none" stroke="#9fc4d6" stroke-width="1.2" opacity="0.13"/><path d="M38,510 a8,8 0 0 1 16,0" fill="none" stroke="#9fc4d6" stroke-width="1.2" opacity="0.13"/><path d="M70,510 a20,20 0 0 1 40,0" fill="none" stroke="#9fc4d6" stroke-width="1.2" opacity="0.13"/><path d="M76,510 a14,14 0 0 1 28,0" fill="none" stroke="#9fc4d6" stroke-width="1.2" opacity="0.13"/><path d="M82,510 a8,8 0 0 1 16,0" fill="none" stroke="#9fc4d6" stroke-width="1.2" opacity="0.13"/><path d="M114,510 a20,20 0 0 1 40,0" fill="none" stroke="#9fc4d6" stroke-width="1.2" opacity="0.13"/><path d="M120,510 a14,14 0 0 1 28,0" fill="none" stroke="#9fc4d6" stroke-width="1.2" opacity="0.13"/><path d="M126,510 a8,8 0 0 1 16,0" fill="none" stroke="#9fc4d6" stroke-width="1.2" opacity="0.13"/><path d="M158,510 a20,20 0 0 1 40,0" fill="none" stroke="#9fc4d6" stroke-width="1.2" opacity="0.13"/><path d="M164,510 a14,14 0 0 1 28,0" fill="none" stroke="#9fc4d6" stroke-width="1.2" opacity="0.13"/><path d="M170,510 a8,8 0 0 1 16,0" fill="none" stroke="#9fc4d6" stroke-width="1.2" opacity="0.13"/><path d="M202,510 a20,20 0 0 1 40,0" fill="none" stroke="#9fc4d6" stroke-width="1.2" opacity="0.13"/><path d="M208,510 a14,14 0 0 1 28,0" fill="none" stroke="#9fc4d6" stroke-width="1.2" opacity="0.13"/><path d="M214,510 a8,8 0 0 1 16,0" fill="none" stroke="#9fc4d6" stroke-width="1.2" opacity="0.13"/><path d="M246,510 a20,20 0 0 1 40,0" fill="none" stroke="#9fc4d6" stroke-width="1.2" opacity="0.13"/><path d="M252,510 a14,14 0 0 1 28,0" fill="none" stroke="#9fc4d6" stroke-width="1.2" opacity="0.13"/><path d="M258,510 a8,8 0 0 1 16,0" fill="none" stroke="#9fc4d6" stroke-width="1.2" opacity="0.13"/><path d="M290,510 a20,20 0 0 1 40,0" fill="none" stroke="#9fc4d6" stroke-width="1.2" opacity="0.13"/><path d="M296,510 a14,14 0 0 1 28,0" fill="none" stroke="#9fc4d6" stroke-width="1.2" opacity="0.13"/><path d="M302,510 a8,8 0 0 1 16,0" fill="none" stroke="#9fc4d6" stroke-width="1.2" opacity="0.13"/><path d="M334,510 a20,20 0 0 1 40,0" fill="none" stroke="#9fc4d6" stroke-width="1.2" opacity="0.13"/><path d="M340,510 a14,14 0 0 1 28,0" fill="none" stroke="#9fc4d6" stroke-width="1.2" opacity="0.13"/><path d="M346,510 a8,8 0 0 1 16,0" fill="none" stroke="#9fc4d6" stroke-width="1.2" opacity="0.13"/><path d="M378,510 a20,20 0 0 1 40,0" fill="none" stroke="#9fc4d6" stroke-width="1.2" opacity="0.13"/><path d="M384,510 a14,14 0 0 1 28,0" fill="none" stroke="#9fc4d6" stroke-width="1.2" opacity="0.13"/><path d="M390,510 a8,8 0 0 1 16,0" fill="none" stroke="#9fc4d6" stroke-width="1.2" opacity="0.13"/><path d="M-40,532 a20,20 0 0 1 40,0" fill="none" stroke="#9fc4d6" stroke-width="1.2" opacity="0.13"/><path d="M-34,532 a14,14 0 0 1 28,0" fill="none" stroke="#9fc4d6" stroke-width="1.2" opacity="0.13"/><path d="M-28,532 a8,8 0 0 1 16,0" fill="none" stroke="#9fc4d6" stroke-width="1.2" opacity="0.13"/><path d="M4,532 a20,20 0 0 1 40,0" fill="none" stroke="#9fc4d6" stroke-width="1.2" opacity="0.13"/><path d="M10,532 a14,14 0 0 1 28,0" fill="none" stroke="#9fc4d6" stroke-width="1.2" opacity="0.13"/><path d="M16,532 a8,8 0 0 1 16,0" fill="none" stroke="#9fc4d6" stroke-width="1.2" opacity="0.13"/><path d="M48,532 a20,20 0 0 1 40,0" fill="none" stroke="#9fc4d6" stroke-width="1.2" opacity="0.13"/><path d="M54,532 a14,14 0 0 1 28,0" fill="none" stroke="#9fc4d6" stroke-width="1.2" opacity="0.13"/><path d="M60,532 a8,8 0 0 1 16,0" fill="none" stroke="#9fc4d6" stroke-width="1.2" opacity="0.13"/><path d="M92,532 a20,20 0 0 1 40,0" fill="none" stroke="#9fc4d6" stroke-width="1.2" opacity="0.13"/><path d="M98,532 a14,14 0 0 1 28,0" fill="none" stroke="#9fc4d6" stroke-width="1.2" opacity="0.13"/><path d="M104,532 a8,8 0 0 1 16,0" fill="none" stroke="#9fc4d6" stroke-width="1.2" opacity="0.13"/><path d="M136,532 a20,20 0 0 1 40,0" fill="none" stroke="#9fc4d6" stroke-width="1.2" opacity="0.13"/><path d="M142,532 a14,14 0 0 1 28,0" fill="none" stroke="#9fc4d6" stroke-width="1.2" opacity="0.13"/><path d="M148,532 a8,8 0 0 1 16,0" fill="none" stroke="#9fc4d6" stroke-width="1.2" opacity="0.13"/><path d="M180,532 a20,20 0 0 1 40,0" fill="none" stroke="#9fc4d6" stroke-width="1.2" opacity="0.13"/><path d="M186,532 a14,14 0 0 1 28,0" fill="none" stroke="#9fc4d6" stroke-width="1.2" opacity="0.13"/><path d="M192,532 a8,8 0 0 1 16,0" fill="none" stroke="#9fc4d6" stroke-width="1.2" opacity="0.13"/><path d="M224,532 a20,20 0 0 1 40,0" fill="none" stroke="#9fc4d6" stroke-width="1.2" opacity="0.13"/><path d="M230,532 a14,14 0 0 1 28,0" fill="none" stroke="#9fc4d6" stroke-width="1.2" opacity="0.13"/><path d="M236,532 a8,8 0 0 1 16,0" fill="none" stroke="#9fc4d6" stroke-width="1.2" opacity="0.13"/><path d="M268,532 a20,20 0 0 1 40,0" fill="none" stroke="#9fc4d6" stroke-width="1.2" opacity="0.13"/><path d="M274,532 a14,14 0 0 1 28,0" fill="none" stroke="#9fc4d6" stroke-width="1.2" opacity="0.13"/><path d="M280,532 a8,8 0 0 1 16,0" fill="none" stroke="#9fc4d6" stroke-width="1.2" opacity="0.13"/><path d="M312,532 a20,20 0 0 1 40,0" fill="none" stroke="#9fc4d6" stroke-width="1.2" opacity="0.13"/><path d="M318,532 a14,14 0 0 1 28,0" fill="none" stroke="#9fc4d6" stroke-width="1.2" opacity="0.13"/><path d="M324,532 a8,8 0 0 1 16,0" fill="none" stroke="#9fc4d6" stroke-width="1.2" opacity="0.13"/><path d="M356,532 a20,20 0 0 1 40,0" fill="none" stroke="#9fc4d6" stroke-width="1.2" opacity="0.13"/><path d="M362,532 a14,14 0 0 1 28,0" fill="none" stroke="#9fc4d6" stroke-width="1.2" opacity="0.13"/><path d="M368,532 a8,8 0 0 1 16,0" fill="none" stroke="#9fc4d6" stroke-width="1.2" opacity="0.13"/><path d="M-18,554 a20,20 0 0 1 40,0" fill="none" stroke="#9fc4d6" stroke-width="1.2" opacity="0.13"/><path d="M-12,554 a14,14 0 0 1 28,0" fill="none" stroke="#9fc4d6" stroke-width="1.2" opacity="0.13"/><path d="M-6,554 a8,8 0 0 1 16,0" fill="none" stroke="#9fc4d6" stroke-width="1.2" opacity="0.13"/><path d="M26,554 a20,20 0 0 1 40,0" fill="none" stroke="#9fc4d6" stroke-width="1.2" opacity="0.13"/><path d="M32,554 a14,14 0 0 1 28,0" fill="none" stroke="#9fc4d6" stroke-width="1.2" opacity="0.13"/><path d="M38,554 a8,8 0 0 1 16,0" fill="none" stroke="#9fc4d6" stroke-width="1.2" opacity="0.13"/><path d="M70,554 a20,20 0 0 1 40,0" fill="none" stroke="#9fc4d6" stroke-width="1.2" opacity="0.13"/><path d="M76,554 a14,14 0 0 1 28,0" fill="none" stroke="#9fc4d6" stroke-width="1.2" opacity="0.13"/><path d="M82,554 a8,8 0 0 1 16,0" fill="none" stroke="#9fc4d6" stroke-width="1.2" opacity="0.13"/><path d="M114,554 a20,20 0 0 1 40,0" fill="none" stroke="#9fc4d6" stroke-width="1.2" opacity="0.13"/><path d="M120,554 a14,14 0 0 1 28,0" fill="none" stroke="#9fc4d6" stroke-width="1.2" opacity="0.13"/><path d="M126,554 a8,8 0 0 1 16,0" fill="none" stroke="#9fc4d6" stroke-width="1.2" opacity="0.13"/><path d="M158,554 a20,20 0 0 1 40,0" fill="none" stroke="#9fc4d6" stroke-width="1.2" opacity="0.13"/><path d="M164,554 a14,14 0 0 1 28,0" fill="none" stroke="#9fc4d6" stroke-width="1.2" opacity="0.13"/><path d="M170,554 a8,8 0 0 1 16,0" fill="none" stroke="#9fc4d6" stroke-width="1.2" opacity="0.13"/><path d="M202,554 a20,20 0 0 1 40,0" fill="none" stroke="#9fc4d6" stroke-width="1.2" opacity="0.13"/><path d="M208,554 a14,14 0 0 1 28,0" fill="none" stroke="#9fc4d6" stroke-width="1.2" opacity="0.13"/><path d="M214,554 a8,8 0 0 1 16,0" fill="none" stroke="#9fc4d6" stroke-width="1.2" opacity="0.13"/><path d="M246,554 a20,20 0 0 1 40,0" fill="none" stroke="#9fc4d6" stroke-width="1.2" opacity="0.13"/><path d="M252,554 a14,14 0 0 1 28,0" fill="none" stroke="#9fc4d6" stroke-width="1.2" opacity="0.13"/><path d="M258,554 a8,8 0 0 1 16,0" fill="none" stroke="#9fc4d6" stroke-width="1.2" opacity="0.13"/><path d="M290,554 a20,20 0 0 1 40,0" fill="none" stroke="#9fc4d6" stroke-width="1.2" opacity="0.13"/><path d="M296,554 a14,14 0 0 1 28,0" fill="none" stroke="#9fc4d6" stroke-width="1.2" opacity="0.13"/><path d="M302,554 a8,8 0 0 1 16,0" fill="none" stroke="#9fc4d6" stroke-width="1.2" opacity="0.13"/><path d="M334,554 a20,20 0 0 1 40,0" fill="none" stroke="#9fc4d6" stroke-width="1.2" opacity="0.13"/><path d="M340,554 a14,14 0 0 1 28,0" fill="none" stroke="#9fc4d6" stroke-width="1.2" opacity="0.13"/><path d="M346,554 a8,8 0 0 1 16,0" fill="none" stroke="#9fc4d6" stroke-width="1.2" opacity="0.13"/><path d="M378,554 a20,20 0 0 1 40,0" fill="none" stroke="#9fc4d6" stroke-width="1.2" opacity="0.13"/><path d="M384,554 a14,14 0 0 1 28,0" fill="none" stroke="#9fc4d6" stroke-width="1.2" opacity="0.13"/><path d="M390,554 a8,8 0 0 1 16,0" fill="none" stroke="#9fc4d6" stroke-width="1.2" opacity="0.13"/>
<text x="180" y="106" text-anchor="middle" font-family="Georgia, 'Times New Roman', serif" font-size="64" fill="#9fc4d6" opacity="0.6">“</text>
<text text-anchor="middle" font-family="Georgia, 'Times New Roman', serif" font-style="italic" font-size="27" fill="#e6f0f4"><tspan x="180" y="167">A place where</tspan><tspan x="180" y="204">someone still</tspan><tspan x="180" y="240">thinks about you is</tspan><tspan x="180" y="276">a place you can</tspan><tspan x="180" y="313">call home.</tspan></text>
<rect x="160" y="343" width="40" height="1.5" fill="#9fc4d6" opacity="0.8"/>
<text x="180" y="373" text-anchor="middle" font-family="'Segoe UI', Helvetica, Arial, sans-serif" font-size="14" letter-spacing="3" fill="#d0e2ea">JIRAIYA</text>
<text x="180" y="395" text-anchor="middle" font-family="Georgia, 'Times New Roman', serif" font-style="italic" font-size="14" fill="#88a3b0">Naruto</text>
<text x="180" y="492" text-anchor="middle" font-family="'Yu Gothic', 'Meiryo', 'Hiragino Sans', sans-serif" font-size="12" letter-spacing="6" fill="#88a3b0">今日の言葉</text>
<rect x="10" y="10" width="340" height="500" rx="12" fill="none" stroke="#e6f0f4" stroke-opacity="0.07"/>
<rect width="360" height="520" filter="url(#grain)"/>
</g>
</svg>
